{
 "cells": [
  {
   "cell_type": "markdown",
   "id": "56f635e4",
   "metadata": {},
   "source": [
    "# 01 — Prepare TUM RGB-D data\n",
    "\n",
    "Run this only if `data/processed/` is empty or you want to regenerate it\n",
    "from scratch. This repository already ships the prepared TUM videos,\n",
    "ground-truth depth, and RGB-depth pairing files, so notebooks 02, 03 and 04\n",
    "reuse the same data instead of rebuilding it each time.\n",
    "\n",
    "Downloads the raw TUM RGB-D sequences, pairs RGB and depth frames by\n",
    "timestamp, encodes RGB frames into an H.264 video without B-frames, and\n",
    "saves the ground-truth depth as a compressed `.npz`."
   ]
  },
  {
   "cell_type": "markdown",
   "id": "f782cf6e",
   "metadata": {},
   "source": [
    "> **Running on Google Colab instead of locally?** The cell below clones\n",
    "> this repository into the Colab VM automatically (skipped if you're\n",
    "> running locally, where the repo is already on disk). Everything after\n",
    "> that works the same either way."
   ]
  },
  {
   "cell_type": "code",
   "execution_count": null,
   "id": "8caee722",
   "metadata": {},
   "outputs": [],
   "source": [
    "# Only runs if this notebook is executing on Google Colab\n",
    "IN_COLAB = \"google.colab\" in str(get_ipython())\n",
    "if IN_COLAB:\n",
    "    !git clone https://github.com/luc4svale/video-depth-benchmark.git\n",
    "    %cd video-depth-benchmark"
   ]
  },
  {
   "cell_type": "code",
   "execution_count": 9,
   "id": "d252b5d5",
   "metadata": {},
   "outputs": [
    {
     "name": "stdout",
     "output_type": "stream",
     "text": [
      "Repo root: /home/luc4svale/code/playground/video-depth-benchmark\n"
     ]
    }
   ],
   "source": [
    "import os\n",
    "\n",
    "# If running on VSCode/Jupyter with the working directory already at the\n",
    "# repo root, this is a no-op. If the notebook's default cwd is notebooks/, \n",
    "# this steps back up one level.\n",
    "if os.path.basename(os.getcwd()) == \"notebooks\":\n",
    "    os.chdir(\"..\")\n",
    "\n",
    "REPO_ROOT = os.getcwd()\n",
    "assert os.path.exists(os.path.join(REPO_ROOT, \"scripts\")), (\n",
    "    \"Could not find scripts/ from the current working directory. \"\n",
    "    \"cd into your cloned copy of this repository before running this notebook.\"\n",
    ")\n",
    "print(\"Repo root:\", REPO_ROOT)"
   ]
  },
  {
   "cell_type": "markdown",
   "id": "d545e23e",
   "metadata": {},
   "source": [
    "## Install dependencies"
   ]
  },
  {
   "cell_type": "code",
   "execution_count": 10,
   "id": "8f8a49a8",
   "metadata": {},
   "outputs": [
    {
     "name": "stdout",
     "output_type": "stream",
     "text": [
      "\n",
      "\u001b[1m[\u001b[0m\u001b[34;49mnotice\u001b[0m\u001b[1;39;49m]\u001b[0m\u001b[39;49m A new release of pip is available: \u001b[0m\u001b[31;49m24.0\u001b[0m\u001b[39;49m -> \u001b[0m\u001b[32;49m26.1.2\u001b[0m\n",
      "\u001b[1m[\u001b[0m\u001b[34;49mnotice\u001b[0m\u001b[1;39;49m]\u001b[0m\u001b[39;49m To update, run: \u001b[0m\u001b[32;49mpip install --upgrade pip\u001b[0m\n"
     ]
    }
   ],
   "source": [
    "!pip install -r requirements.txt -q"
   ]
  },
  {
   "cell_type": "markdown",
   "id": "ddfe461e",
   "metadata": {},
   "source": [
    "## Run the preparation script\n",
    "\n",
    "This step calls `ffmpeg` directly. If it fails with `FileNotFoundError: ffmpeg`,\n",
    "install it (`sudo apt install ffmpeg` on Ubuntu/Debian, `brew install ffmpeg`\n",
    "on macOS) and re-run."
   ]
  },
  {
   "cell_type": "code",
   "execution_count": 11,
   "id": "4443deec",
   "metadata": {},
   "outputs": [
    {
     "name": "stdout",
     "output_type": "stream",
     "text": [
      "[skip] already extracted: /tmp/tum_raw/rgbd_dataset_freiburg1_desk\n",
      "ffmpeg version 6.1.1-3ubuntu5 Copyright (c) 2000-2023 the FFmpeg developers\n",
      "  built with gcc 13 (Ubuntu 13.2.0-23ubuntu3)\n",
      "  configuration: --prefix=/usr --extra-version=3ubuntu5 --toolchain=hardened --libdir=/usr/lib/x86_64-linux-gnu --incdir=/usr/include/x86_64-linux-gnu --arch=amd64 --enable-gpl --disable-stripping --disable-omx --enable-gnutls --enable-libaom --enable-libass --enable-libbs2b --enable-libcaca --enable-libcdio --enable-libcodec2 --enable-libdav1d --enable-libflite --enable-libfontconfig --enable-libfreetype --enable-libfribidi --enable-libglslang --enable-libgme --enable-libgsm --enable-libharfbuzz --enable-libmp3lame --enable-libmysofa --enable-libopenjpeg --enable-libopenmpt --enable-libopus --enable-librubberband --enable-libshine --enable-libsnappy --enable-libsoxr --enable-libspeex --enable-libtheora --enable-libtwolame --enable-libvidstab --enable-libvorbis --enable-libvpx --enable-libwebp --enable-libx265 --enable-libxml2 --enable-libxvid --enable-libzimg --enable-openal --enable-opencl --enable-opengl --disable-sndio --enable-libvpl --disable-libmfx --enable-libdc1394 --enable-libdrm --enable-libiec61883 --enable-chromaprint --enable-frei0r --enable-ladspa --enable-libbluray --enable-libjack --enable-libpulse --enable-librabbitmq --enable-librist --enable-libsrt --enable-libssh --enable-libsvtav1 --enable-libx264 --enable-libzmq --enable-libzvbi --enable-lv2 --enable-sdl2 --enable-libplacebo --enable-librav1e --enable-pocketsphinx --enable-librsvg --enable-libjxl --enable-shared\n",
      "  libavutil      58. 29.100 / 58. 29.100\n",
      "  libavcodec     60. 31.102 / 60. 31.102\n",
      "  libavformat    60. 16.100 / 60. 16.100\n",
      "  libavdevice    60.  3.100 / 60.  3.100\n",
      "  libavfilter     9. 12.100 /  9. 12.100\n",
      "  libswscale      7.  5.100 /  7.  5.100\n",
      "  libswresample   4. 12.100 /  4. 12.100\n",
      "  libpostproc    57.  3.100 / 57.  3.100\n",
      "Input #0, image2, from '/tmp/tum_frames_tmp/tum_frames_fr1/frame_%04d.png':\n",
      "  Duration: 00:00:11.00, start: 0.000000, bitrate: N/A\n",
      "  Stream #0:0: Video: png, rgb24(pc, gbr/unknown/unknown), 640x480, 10 fps, 10 tbr, 10 tbn\n",
      "Stream mapping:\n",
      "  Stream #0:0 -> #0:0 (png (native) -> h264 (libx264))\n",
      "Press [q] to stop, [?] for help\n",
      "\u001b[1;36m[libx264 @ 0x56b5c9024e40] \u001b[0musing cpu capabilities: MMX2 SSE2Fast SSSE3 SSE4.2 AVX FMA3 BMI2 AVX2\n",
      "\u001b[1;36m[libx264 @ 0x56b5c9024e40] \u001b[0mprofile Constrained Baseline, level 2.2, 4:2:0, 8-bit\n",
      "\u001b[1;36m[libx264 @ 0x56b5c9024e40] \u001b[0m264 - core 164 r3108 31e19f9 - H.264/MPEG-4 AVC codec - Copyleft 2003-2023 - http://www.videolan.org/x264.html - options: cabac=0 ref=3 deblock=1:0:0 analyse=0x1:0x111 me=hex subme=7 psy=1 psy_rd=1.00:0.00 mixed_ref=1 me_range=16 chroma_me=1 trellis=1 8x8dct=0 cqm=0 deadzone=21,11 fast_pskip=1 chroma_qp_offset=-2 threads=15 lookahead_threads=2 sliced_threads=0 nr=0 decimate=1 interlaced=0 bluray_compat=0 constrained_intra=0 bframes=0 weightp=0 keyint=250 keyint_min=10 scenecut=40 intra_refresh=0 rc_lookahead=40 rc=crf mbtree=1 crf=23.0 qcomp=0.60 qpmin=0 qpmax=69 qpstep=4 ip_ratio=1.40 aq=1:1.00\n",
      "Output #0, mp4, to 'data/processed/tum_freiburg1_desk.mp4':\n",
      "  Metadata:\n",
      "    encoder         : Lavf60.16.100\n",
      "  Stream #0:0: Video: h264 (avc1 / 0x31637661), yuv420p(tv, progressive), 640x480, q=2-31, 10 fps, 10240 tbn\n",
      "    Metadata:\n",
      "      encoder         : Lavc60.31.102 libx264\n",
      "    Side data:\n",
      "      cpb: bitrate max/min/avg: 0/0/0 buffer size: 0 vbv_delay: N/A\n",
      "\u001b[1;35m[out#0/mp4 @ 0x56b5c9024240] \u001b[0mvideo:1685kB audio:0kB subtitle:0kB other streams:0kB global headers:0kB muxing overhead: 0.074930%\n",
      "frame=  110 fps=0.0 q=-1.0 Lsize=    1686kB time=00:00:10.90 bitrate=1267.4kbits/s speed=20.3x    \n",
      "\u001b[1;36m[libx264 @ 0x56b5c9024e40] \u001b[0mframe I:1     Avg QP:21.99  size: 24952\n",
      "\u001b[1;36m[libx264 @ 0x56b5c9024e40] \u001b[0mframe P:109   Avg QP:23.20  size: 15597\n",
      "\u001b[1;36m[libx264 @ 0x56b5c9024e40] \u001b[0mmb I  I16..4: 23.2%  0.0% 76.8%\n",
      "\u001b[1;36m[libx264 @ 0x56b5c9024e40] \u001b[0mmb P  I16..4:  1.9%  0.0%  7.4%  P16..4: 49.3% 27.7%  9.8%  0.0%  0.0%    skip: 3.9%\n",
      "\u001b[1;36m[libx264 @ 0x56b5c9024e40] \u001b[0mcoded y,uvDC,uvAC intra: 74.0% 89.9% 70.2% inter: 43.6% 75.1% 22.6%\n",
      "\u001b[1;36m[libx264 @ 0x56b5c9024e40] \u001b[0mi16 v,h,dc,p: 29% 20% 11% 40%\n",
      "\u001b[1;36m[libx264 @ 0x56b5c9024e40] \u001b[0mi4 v,h,dc,ddl,ddr,vr,hd,vl,hu: 13% 20% 18%  9%  8%  7% 10%  6%  9%\n",
      "\u001b[1;36m[libx264 @ 0x56b5c9024e40] \u001b[0mi8c dc,h,v,p: 60% 20% 14%  6%\n",
      "\u001b[1;36m[libx264 @ 0x56b5c9024e40] \u001b[0mref P L0: 69.8% 17.5% 12.7%\n",
      "\u001b[1;36m[libx264 @ 0x56b5c9024e40] \u001b[0mkb/s:1254.53\n",
      "[fr1] 110 pairs associated -> data/processed/tum_freiburg1_desk.mp4, data/processed/tum_freiburg1_desk_gt_depth.npz\n",
      "[ok] extracted: /tmp/tum_raw/rgbd_dataset_freiburg2_desk\n",
      "ffmpeg version 6.1.1-3ubuntu5 Copyright (c) 2000-2023 the FFmpeg developers\n",
      "  built with gcc 13 (Ubuntu 13.2.0-23ubuntu3)\n",
      "  configuration: --prefix=/usr --extra-version=3ubuntu5 --toolchain=hardened --libdir=/usr/lib/x86_64-linux-gnu --incdir=/usr/include/x86_64-linux-gnu --arch=amd64 --enable-gpl --disable-stripping --disable-omx --enable-gnutls --enable-libaom --enable-libass --enable-libbs2b --enable-libcaca --enable-libcdio --enable-libcodec2 --enable-libdav1d --enable-libflite --enable-libfontconfig --enable-libfreetype --enable-libfribidi --enable-libglslang --enable-libgme --enable-libgsm --enable-libharfbuzz --enable-libmp3lame --enable-libmysofa --enable-libopenjpeg --enable-libopenmpt --enable-libopus --enable-librubberband --enable-libshine --enable-libsnappy --enable-libsoxr --enable-libspeex --enable-libtheora --enable-libtwolame --enable-libvidstab --enable-libvorbis --enable-libvpx --enable-libwebp --enable-libx265 --enable-libxml2 --enable-libxvid --enable-libzimg --enable-openal --enable-opencl --enable-opengl --disable-sndio --enable-libvpl --disable-libmfx --enable-libdc1394 --enable-libdrm --enable-libiec61883 --enable-chromaprint --enable-frei0r --enable-ladspa --enable-libbluray --enable-libjack --enable-libpulse --enable-librabbitmq --enable-librist --enable-libsrt --enable-libssh --enable-libsvtav1 --enable-libx264 --enable-libzmq --enable-libzvbi --enable-lv2 --enable-sdl2 --enable-libplacebo --enable-librav1e --enable-pocketsphinx --enable-librsvg --enable-libjxl --enable-shared\n",
      "  libavutil      58. 29.100 / 58. 29.100\n",
      "  libavcodec     60. 31.102 / 60. 31.102\n",
      "  libavformat    60. 16.100 / 60. 16.100\n",
      "  libavdevice    60.  3.100 / 60.  3.100\n",
      "  libavfilter     9. 12.100 /  9. 12.100\n",
      "  libswscale      7.  5.100 /  7.  5.100\n",
      "  libswresample   4. 12.100 /  4. 12.100\n",
      "  libpostproc    57.  3.100 / 57.  3.100\n",
      "Input #0, image2, from '/tmp/tum_frames_tmp/tum_frames_fr2/frame_%04d.png':\n",
      "  Duration: 00:00:11.00, start: 0.000000, bitrate: N/A\n",
      "  Stream #0:0: Video: png, rgb24(pc, gbr/unknown/unknown), 640x480, 10 fps, 10 tbr, 10 tbn\n",
      "Stream mapping:\n",
      "  Stream #0:0 -> #0:0 (png (native) -> h264 (libx264))\n",
      "Press [q] to stop, [?] for help\n",
      "\u001b[1;36m[libx264 @ 0x601e4bc9fe40] \u001b[0musing cpu capabilities: MMX2 SSE2Fast SSSE3 SSE4.2 AVX FMA3 BMI2 AVX2\n",
      "\u001b[1;36m[libx264 @ 0x601e4bc9fe40] \u001b[0mprofile Constrained Baseline, level 2.2, 4:2:0, 8-bit\n",
      "\u001b[1;36m[libx264 @ 0x601e4bc9fe40] \u001b[0m264 - core 164 r3108 31e19f9 - H.264/MPEG-4 AVC codec - Copyleft 2003-2023 - http://www.videolan.org/x264.html - options: cabac=0 ref=3 deblock=1:0:0 analyse=0x1:0x111 me=hex subme=7 psy=1 psy_rd=1.00:0.00 mixed_ref=1 me_range=16 chroma_me=1 trellis=1 8x8dct=0 cqm=0 deadzone=21,11 fast_pskip=1 chroma_qp_offset=-2 threads=15 lookahead_threads=2 sliced_threads=0 nr=0 decimate=1 interlaced=0 bluray_compat=0 constrained_intra=0 bframes=0 weightp=0 keyint=250 keyint_min=10 scenecut=40 intra_refresh=0 rc_lookahead=40 rc=crf mbtree=1 crf=23.0 qcomp=0.60 qpmin=0 qpmax=69 qpstep=4 ip_ratio=1.40 aq=1:1.00\n",
      "Output #0, mp4, to 'data/processed/tum_freiburg2_desk.mp4':\n",
      "  Metadata:\n",
      "    encoder         : Lavf60.16.100\n",
      "  Stream #0:0: Video: h264 (avc1 / 0x31637661), yuv420p(tv, progressive), 640x480, q=2-31, 10 fps, 10240 tbn\n",
      "    Metadata:\n",
      "      encoder         : Lavc60.31.102 libx264\n",
      "    Side data:\n",
      "      cpb: bitrate max/min/avg: 0/0/0 buffer size: 0 vbv_delay: N/A\n",
      "\u001b[1;35m[out#0/mp4 @ 0x601e4bc9f240] \u001b[0mvideo:1907kB audio:0kB subtitle:0kB other streams:0kB global headers:0kB muxing overhead: 0.066202%\n",
      "frame=  110 fps=0.0 q=-1.0 Lsize=    1909kB time=00:00:10.90 bitrate=1434.4kbits/s speed=20.3x    \n",
      "\u001b[1;36m[libx264 @ 0x601e4bc9fe40] \u001b[0mframe I:1     Avg QP:23.14  size: 38797\n",
      "\u001b[1;36m[libx264 @ 0x601e4bc9fe40] \u001b[0mframe P:109   Avg QP:22.81  size: 17557\n",
      "\u001b[1;36m[libx264 @ 0x601e4bc9fe40] \u001b[0mmb I  I16..4:  8.1%  0.0% 91.9%\n",
      "\u001b[1;36m[libx264 @ 0x601e4bc9fe40] \u001b[0mmb P  I16..4:  0.4%  0.0%  1.9%  P16..4: 57.9% 28.1% 10.5%  0.0%  0.0%    skip: 1.2%\n",
      "\u001b[1;36m[libx264 @ 0x601e4bc9fe40] \u001b[0mcoded y,uvDC,uvAC intra: 91.5% 98.4% 93.9% inter: 46.3% 92.4% 64.3%\n",
      "\u001b[1;36m[libx264 @ 0x601e4bc9fe40] \u001b[0mi16 v,h,dc,p: 12% 23%  5% 61%\n",
      "\u001b[1;36m[libx264 @ 0x601e4bc9fe40] \u001b[0mi4 v,h,dc,ddl,ddr,vr,hd,vl,hu: 15% 26% 22%  7%  7%  6%  7%  5%  6%\n",
      "\u001b[1;36m[libx264 @ 0x601e4bc9fe40] \u001b[0mi8c dc,h,v,p: 63% 19% 11%  7%\n",
      "\u001b[1;36m[libx264 @ 0x601e4bc9fe40] \u001b[0mref P L0: 66.0% 20.9% 13.2%\n",
      "\u001b[1;36m[libx264 @ 0x601e4bc9fe40] \u001b[0mkb/s:1419.99\n",
      "[fr2] 110 pairs associated -> data/processed/tum_freiburg2_desk.mp4, data/processed/tum_freiburg2_desk_gt_depth.npz\n",
      "[ok] extracted: /tmp/tum_raw/rgbd_dataset_freiburg3_long_office_household\n",
      "ffmpeg version 6.1.1-3ubuntu5 Copyright (c) 2000-2023 the FFmpeg developers\n",
      "  built with gcc 13 (Ubuntu 13.2.0-23ubuntu3)\n",
      "  configuration: --prefix=/usr --extra-version=3ubuntu5 --toolchain=hardened --libdir=/usr/lib/x86_64-linux-gnu --incdir=/usr/include/x86_64-linux-gnu --arch=amd64 --enable-gpl --disable-stripping --disable-omx --enable-gnutls --enable-libaom --enable-libass --enable-libbs2b --enable-libcaca --enable-libcdio --enable-libcodec2 --enable-libdav1d --enable-libflite --enable-libfontconfig --enable-libfreetype --enable-libfribidi --enable-libglslang --enable-libgme --enable-libgsm --enable-libharfbuzz --enable-libmp3lame --enable-libmysofa --enable-libopenjpeg --enable-libopenmpt --enable-libopus --enable-librubberband --enable-libshine --enable-libsnappy --enable-libsoxr --enable-libspeex --enable-libtheora --enable-libtwolame --enable-libvidstab --enable-libvorbis --enable-libvpx --enable-libwebp --enable-libx265 --enable-libxml2 --enable-libxvid --enable-libzimg --enable-openal --enable-opencl --enable-opengl --disable-sndio --enable-libvpl --disable-libmfx --enable-libdc1394 --enable-libdrm --enable-libiec61883 --enable-chromaprint --enable-frei0r --enable-ladspa --enable-libbluray --enable-libjack --enable-libpulse --enable-librabbitmq --enable-librist --enable-libsrt --enable-libssh --enable-libsvtav1 --enable-libx264 --enable-libzmq --enable-libzvbi --enable-lv2 --enable-sdl2 --enable-libplacebo --enable-librav1e --enable-pocketsphinx --enable-librsvg --enable-libjxl --enable-shared\n",
      "  libavutil      58. 29.100 / 58. 29.100\n",
      "  libavcodec     60. 31.102 / 60. 31.102\n",
      "  libavformat    60. 16.100 / 60. 16.100\n",
      "  libavdevice    60.  3.100 / 60.  3.100\n",
      "  libavfilter     9. 12.100 /  9. 12.100\n",
      "  libswscale      7.  5.100 /  7.  5.100\n",
      "  libswresample   4. 12.100 /  4. 12.100\n",
      "  libpostproc    57.  3.100 / 57.  3.100\n",
      "Input #0, image2, from '/tmp/tum_frames_tmp/tum_frames_fr3/frame_%04d.png':\n",
      "  Duration: 00:00:11.00, start: 0.000000, bitrate: N/A\n",
      "  Stream #0:0: Video: png, rgb24(pc, gbr/unknown/unknown), 640x480, 10 fps, 10 tbr, 10 tbn\n",
      "Stream mapping:\n",
      "  Stream #0:0 -> #0:0 (png (native) -> h264 (libx264))\n",
      "Press [q] to stop, [?] for help\n",
      "\u001b[1;36m[libx264 @ 0x63ed61233e40] \u001b[0musing cpu capabilities: MMX2 SSE2Fast SSSE3 SSE4.2 AVX FMA3 BMI2 AVX2\n",
      "\u001b[1;36m[libx264 @ 0x63ed61233e40] \u001b[0mprofile Constrained Baseline, level 2.2, 4:2:0, 8-bit\n",
      "\u001b[1;36m[libx264 @ 0x63ed61233e40] \u001b[0m264 - core 164 r3108 31e19f9 - H.264/MPEG-4 AVC codec - Copyleft 2003-2023 - http://www.videolan.org/x264.html - options: cabac=0 ref=3 deblock=1:0:0 analyse=0x1:0x111 me=hex subme=7 psy=1 psy_rd=1.00:0.00 mixed_ref=1 me_range=16 chroma_me=1 trellis=1 8x8dct=0 cqm=0 deadzone=21,11 fast_pskip=1 chroma_qp_offset=-2 threads=15 lookahead_threads=2 sliced_threads=0 nr=0 decimate=1 interlaced=0 bluray_compat=0 constrained_intra=0 bframes=0 weightp=0 keyint=250 keyint_min=10 scenecut=40 intra_refresh=0 rc_lookahead=40 rc=crf mbtree=1 crf=23.0 qcomp=0.60 qpmin=0 qpmax=69 qpstep=4 ip_ratio=1.40 aq=1:1.00\n",
      "Output #0, mp4, to 'data/processed/tum_freiburg3_office.mp4':\n",
      "  Metadata:\n",
      "    encoder         : Lavf60.16.100\n",
      "  Stream #0:0: Video: h264 (avc1 / 0x31637661), yuv420p(tv, progressive), 640x480, q=2-31, 10 fps, 10240 tbn\n",
      "    Metadata:\n",
      "      encoder         : Lavc60.31.102 libx264\n",
      "    Side data:\n",
      "      cpb: bitrate max/min/avg: 0/0/0 buffer size: 0 vbv_delay: N/A\n",
      "\u001b[1;35m[out#0/mp4 @ 0x63ed61233240] \u001b[0mvideo:1114kB audio:0kB subtitle:0kB other streams:0kB global headers:0kB muxing overhead: 0.113358%\n",
      "frame=  110 fps=0.0 q=-1.0 Lsize=    1115kB time=00:00:10.90 bitrate= 838.1kbits/s speed=24.1x    \n",
      "\u001b[1;36m[libx264 @ 0x63ed61233e40] \u001b[0mframe I:1     Avg QP:22.41  size: 30789\n",
      "\u001b[1;36m[libx264 @ 0x63ed61233e40] \u001b[0mframe P:109   Avg QP:22.41  size: 10176\n",
      "\u001b[1;36m[libx264 @ 0x63ed61233e40] \u001b[0mmb I  I16..4: 21.7%  0.0% 78.3%\n",
      "\u001b[1;36m[libx264 @ 0x63ed61233e40] \u001b[0mmb P  I16..4:  0.5%  0.0%  0.3%  P16..4: 62.8% 21.1%  8.5%  0.0%  0.0%    skip: 6.8%\n",
      "\u001b[1;36m[libx264 @ 0x63ed61233e40] \u001b[0mcoded y,uvDC,uvAC intra: 59.5% 89.5% 71.2% inter: 25.5% 78.0% 31.3%\n",
      "\u001b[1;36m[libx264 @ 0x63ed61233e40] \u001b[0mi16 v,h,dc,p: 13% 36%  3% 48%\n",
      "\u001b[1;36m[libx264 @ 0x63ed61233e40] \u001b[0mi4 v,h,dc,ddl,ddr,vr,hd,vl,hu: 21% 37% 16%  5%  4%  4%  5%  3%  4%\n",
      "\u001b[1;36m[libx264 @ 0x63ed61233e40] \u001b[0mi8c dc,h,v,p: 48% 31% 15%  7%\n",
      "\u001b[1;36m[libx264 @ 0x63ed61233e40] \u001b[0mref P L0: 57.0% 24.6% 18.5%\n",
      "\u001b[1;36m[libx264 @ 0x63ed61233e40] \u001b[0mkb/s:829.09\n",
      "[fr3] 110 pairs associated -> data/processed/tum_freiburg3_office.mp4, data/processed/tum_freiburg3_office_gt_depth.npz\n",
      "\n",
      "Done. Commit the contents of data/processed to data/processed/ in the repo.\n"
     ]
    }
   ],
   "source": [
    "!python scripts/prepare_tum_videos.py \\\n",
    "    --raw_dir /tmp/tum_raw \\\n",
    "    --tmp_dir /tmp/tum_frames_tmp \\\n",
    "    --output_dir data/processed"
   ]
  },
  {
   "cell_type": "markdown",
   "id": "81ca46fd",
   "metadata": {},
   "source": [
    "## Verify outputs\n",
    "\n",
    "You should now have 9 files in `data/processed/`: 3 `.mp4`, 3 `_gt_depth.npz`, and 3 `tum_pairs_*.json`."
   ]
  },
  {
   "cell_type": "code",
   "execution_count": 12,
   "id": "3cd3f47f",
   "metadata": {},
   "outputs": [
    {
     "name": "stdout",
     "output_type": "stream",
     "text": [
      "total 28568\n",
      "drwxr-xr-x 2 luc4svale luc4svale    4096 jul  8 12:08 .\n",
      "drwxr-xr-x 4 luc4svale luc4svale    4096 jul  8 10:14 ..\n",
      "-rw-rw-r-- 1 luc4svale luc4svale 9322459 jul  8 11:44 tum_freiburg1_desk_gt_depth.npz\n",
      "-rw-rw-r-- 1 luc4svale luc4svale 1726898 jul  8 11:44 tum_freiburg1_desk.mp4\n",
      "-rw-rw-r-- 1 luc4svale luc4svale 7875247 jul  8 12:01 tum_freiburg2_desk_gt_depth.npz\n",
      "-rw-rw-r-- 1 luc4svale luc4svale 1954406 jul  8 12:01 tum_freiburg2_desk.mp4\n",
      "-rw-rw-r-- 1 luc4svale luc4svale 7190188 jul  8 12:08 tum_freiburg3_office_gt_depth.npz\n",
      "-rw-rw-r-- 1 luc4svale luc4svale 1141923 jul  8 12:08 tum_freiburg3_office.mp4\n",
      "-rw-rw-r-- 1 luc4svale luc4svale    6820 jul  8 11:44 tum_pairs_fr1.json\n",
      "-rw-rw-r-- 1 luc4svale luc4svale    6820 jul  8 12:01 tum_pairs_fr2.json\n",
      "-rw-rw-r-- 1 luc4svale luc4svale    6820 jul  8 12:08 tum_pairs_fr3.json\n"
     ]
    }
   ],
   "source": [
    "!ls -la data/processed/"
   ]
  }
 ],
 "metadata": {
  "language_info": {
   "name": "python"
  }
 },
 "nbformat": 4,
 "nbformat_minor": 5
}
